<?xml version="1.0" encoding="UTF-8" standalone="no"?><!DOCTYPE svg PUBLIC "-//W3C//DTD SVG 1.1//EN" "http://www.w3.org/Graphics/SVG/1.1/DTD/svg11.dtd"><svg width="100%" height="100%" viewBox="0 0 840 1500" version="1.1" xmlns="http://www.w3.org/2000/svg" xmlns:xlink="http://www.w3.org/1999/xlink" xml:space="preserve" xmlns:serif="http://www.serif.com/" style="fill-rule:evenodd;clip-rule:evenodd;stroke-miterlimit:10;"><path id="_125B" serif:id="125B" d="M810.079,1450.7c0,10.66 -8.801,19.304 -19.665,19.304l-740.671,0c-10.868,0 -19.664,-8.644 -19.664,-19.304l0,-1401.38c0,-10.665 8.796,-19.313 19.664,-19.313l740.671,-0c10.864,-0 19.665,8.648 19.665,19.313l0,1401.38Z" style="fill:#bfbfbf;fill-rule:nonzero;stroke:#231f20;stroke-width:25px;"/><g><circle cx="235.854" cy="1294.99" r="90" style="fill:#fff;stroke:#000;stroke-width:8.33px;stroke-linecap:round;stroke-linejoin:round;"/><circle cx="235.854" cy="1294.99" r="56.25" style="fill:#fff;stroke:#000;stroke-width:12.5px;stroke-linecap:round;stroke-linejoin:round;"/></g><g><circle cx="604.298" cy="1294.99" r="90" style="fill:#fff;stroke:#000;stroke-width:8.33px;stroke-linecap:round;stroke-linejoin:round;"/><circle cx="604.298" cy="1294.99" r="56.25" style="fill:#fff;stroke:#000;stroke-width:12.5px;stroke-linecap:round;stroke-linejoin:round;"/></g><g><circle cx="174.446" cy="596.483" r="90" style="fill:#fff;stroke:#000;stroke-width:12.5px;stroke-linecap:round;stroke-linejoin:round;"/><path d="M174.446,581.483l0,-75" style="fill:none;stroke:#000;stroke-width:8.33px;stroke-linecap:round;stroke-linejoin:round;stroke-miterlimit:1.5;"/></g><g><circle cx="420.076" cy="289.446" r="90" style="fill:#fff;stroke:#000;stroke-width:12.5px;stroke-linecap:round;stroke-linejoin:round;"/><path d="M420.076,274.446l-0,-75" style="fill:none;stroke:#000;stroke-width:8.33px;stroke-linecap:round;stroke-linejoin:round;stroke-miterlimit:1.5;"/></g><g><circle cx="420.076" cy="596.483" r="90" style="fill:#fff;stroke:#000;stroke-width:12.5px;stroke-linecap:round;stroke-linejoin:round;"/><path d="M420.076,581.483l-0,-75" style="fill:none;stroke:#000;stroke-width:8.33px;stroke-linecap:round;stroke-linejoin:round;stroke-miterlimit:1.5;"/></g><g><circle cx="665.705" cy="596.483" r="90" style="fill:#fff;stroke:#000;stroke-width:12.5px;stroke-linecap:round;stroke-linejoin:round;"/><path d="M665.705,581.483l-0,-75" style="fill:none;stroke:#000;stroke-width:8.33px;stroke-linecap:round;stroke-linejoin:round;stroke-miterlimit:1.5;"/></g><g><circle cx="174.446" cy="289.446" r="90" style="fill:#fff;stroke:#000;stroke-width:12.5px;stroke-linecap:round;stroke-linejoin:round;"/><path d="M174.446,274.446l0,-75" style="fill:none;stroke:#000;stroke-width:8.33px;stroke-linecap:round;stroke-linejoin:round;stroke-miterlimit:1.5;"/></g><g><circle cx="665.705" cy="289.446" r="90" style="fill:#fff;stroke:#000;stroke-width:12.5px;stroke-linecap:round;stroke-linejoin:round;"/><path d="M665.705,274.446l-0,-75" style="fill:none;stroke:#000;stroke-width:8.33px;stroke-linecap:round;stroke-linejoin:round;stroke-miterlimit:1.5;"/></g><circle cx="235.854" cy="1080.07" r="26.374" style="fill:#fff;stroke:#000;stroke-width:8.33px;stroke-linecap:round;stroke-linejoin:round;"/><circle cx="604.298" cy="1080.07" r="26.374" style="fill:#fff;stroke:#000;stroke-width:8.33px;stroke-linecap:round;stroke-linejoin:round;"/><g><circle cx="335.641" cy="903.519" r="48" style="fill:#fff;stroke:#000;stroke-width:8.33px;stroke-linecap:round;stroke-linejoin:round;"/><path d="M356.85,834.688c-1.263,22.097 -2.526,44.194 -3.788,66.29c-0.503,8.807 -8.448,16.122 -17.421,16.122c-8.974,-0 -16.918,-7.315 -17.422,-16.122c-1.262,-22.096 -2.525,-44.193 -3.788,-66.29c-0.716,-12.543 9.543,-22.588 21.21,-22.588c11.666,-0 21.926,10.045 21.209,22.588Z" style="fill:#fff;stroke:#000;stroke-width:8.33px;stroke-linecap:round;stroke-linejoin:round;stroke-miterlimit:1.5;"/></g><g><circle cx="166.77" cy="903.519" r="48" style="fill:#fff;stroke:#000;stroke-width:8.33px;stroke-linecap:round;stroke-linejoin:round;"/><path d="M187.98,834.688c-1.263,22.097 -2.526,44.194 -3.788,66.29c-0.504,8.807 -8.448,16.122 -17.422,16.122c-8.973,-0 -16.918,-7.315 -17.421,-16.122c-1.263,-22.096 -2.525,-44.193 -3.788,-66.29c-0.717,-12.543 9.543,-22.588 21.209,-22.588c11.667,-0 21.926,10.045 21.21,22.588Z" style="fill:#fff;stroke:#000;stroke-width:8.33px;stroke-linecap:round;stroke-linejoin:round;stroke-miterlimit:1.5;"/></g><g><circle cx="504.511" cy="903.519" r="48" style="fill:#fff;stroke:#000;stroke-width:8.33px;stroke-linecap:round;stroke-linejoin:round;"/><path d="M525.72,834.688c-1.263,22.097 -2.525,44.194 -3.788,66.29c-0.503,8.807 -8.448,16.122 -17.421,16.122c-8.974,-0 -16.918,-7.315 -17.422,-16.122c-1.262,-22.096 -2.525,-44.193 -3.788,-66.29c-0.716,-12.543 9.543,-22.588 21.21,-22.588c11.666,-0 21.926,10.045 21.209,22.588Z" style="fill:#fff;stroke:#000;stroke-width:8.33px;stroke-linecap:round;stroke-linejoin:round;stroke-miterlimit:1.5;"/></g><g><circle cx="673.381" cy="903.519" r="48" style="fill:#fff;stroke:#000;stroke-width:8.33px;stroke-linecap:round;stroke-linejoin:round;"/><path d="M694.59,834.688c-1.263,22.097 -2.525,44.194 -3.788,66.29c-0.503,8.807 -8.448,16.122 -17.421,16.122c-8.973,-0 -16.918,-7.315 -17.421,-16.122c-1.263,-22.096 -2.526,-44.193 -3.788,-66.29c-0.717,-12.543 9.542,-22.588 21.209,-22.588c11.666,-0 21.926,10.045 21.209,22.588Z" style="fill:#fff;stroke:#000;stroke-width:8.33px;stroke-linecap:round;stroke-linejoin:round;stroke-miterlimit:1.5;"/></g><path d="M145.296,424.871l0,-20.625l5.134,-0c1.772,-0 3.261,0.252 4.468,0.756c1.207,0.504 2.177,1.23 2.911,2.177c0.733,0.948 1.26,2.086 1.581,3.415c0.321,1.329 0.481,2.819 0.481,4.469c0,1.802 -0.229,3.33 -0.687,4.583c-0.459,1.253 -1.07,2.269 -1.834,3.048c-0.763,0.779 -1.634,1.337 -2.612,1.673c-0.978,0.336 -1.986,0.504 -3.025,0.504l-6.417,-0Zm-7.196,-26.675l0,32.725l14.117,-0c2.506,-0 4.683,-0.42 6.531,-1.26c1.849,-0.841 3.392,-1.994 4.63,-3.461c1.237,-1.467 2.161,-3.208 2.772,-5.225c0.612,-2.017 0.917,-4.217 0.917,-6.6c0,-2.719 -0.374,-5.087 -1.123,-7.104c-0.748,-2.017 -1.787,-3.697 -3.116,-5.042c-1.33,-1.344 -2.903,-2.352 -4.721,-3.025c-1.818,-0.672 -3.782,-1.008 -5.89,-1.008l-14.117,-0Z" style="fill-rule:nonzero;"/><path d="M171.375,407.225l0,23.696l6.509,-0l-0,-10.679c-0,-1.07 0.107,-2.063 0.321,-2.979c0.214,-0.917 0.573,-1.719 1.077,-2.407c0.504,-0.687 1.168,-1.229 1.993,-1.627c0.825,-0.397 1.834,-0.596 3.025,-0.596c0.398,0 0.81,0.023 1.238,0.069c0.428,0.046 0.794,0.1 1.1,0.161l-0,-6.05c-0.519,-0.153 -0.993,-0.23 -1.421,-0.23c-0.825,0 -1.619,0.123 -2.383,0.367c-0.764,0.245 -1.482,0.588 -2.154,1.031c-0.673,0.443 -1.268,0.978 -1.788,1.605c-0.519,0.626 -0.932,1.306 -1.237,2.039l-0.092,0l-0,-4.4l-6.188,0Z" style="fill-rule:nonzero;"/><path d="M200.892,433.854l9.9,-26.629l-6.737,0l-5.18,16.225l-0.091,0l-5.363,-16.225l-6.921,0l8.296,22.229c0.184,0.459 0.275,0.948 0.275,1.467c0,0.703 -0.206,1.344 -0.618,1.925c-0.413,0.581 -1.047,0.917 -1.903,1.008c-0.641,0.031 -1.283,0.016 -1.925,-0.046c-0.641,-0.061 -1.268,-0.122 -1.879,-0.183l0,5.363c0.673,0.061 1.337,0.114 1.994,0.16c0.657,0.046 1.322,0.069 1.994,0.069c2.23,-0 3.972,-0.413 5.225,-1.238c1.253,-0.825 2.23,-2.2 2.933,-4.125Z" style="fill-rule:nonzero;"/><path d="M100.746,732.687l0,-20.625l5.134,-0c1.772,-0 3.261,0.252 4.468,0.756c1.207,0.504 2.177,1.23 2.911,2.177c0.733,0.947 1.26,2.086 1.581,3.415c0.321,1.329 0.481,2.819 0.481,4.469c0,1.802 -0.229,3.33 -0.687,4.583c-0.459,1.253 -1.07,2.269 -1.834,3.048c-0.763,0.779 -1.634,1.337 -2.612,1.673c-0.978,0.336 -1.986,0.504 -3.025,0.504l-6.417,-0Zm-7.196,-26.675l0,32.725l14.117,-0c2.506,-0 4.683,-0.42 6.531,-1.261c1.849,-0.84 3.392,-1.993 4.63,-3.46c1.237,-1.467 2.161,-3.208 2.772,-5.225c0.612,-2.017 0.917,-4.217 0.917,-6.6c0,-2.719 -0.374,-5.087 -1.123,-7.104c-0.748,-2.017 -1.787,-3.697 -3.116,-5.042c-1.33,-1.344 -2.903,-2.353 -4.721,-3.025c-1.818,-0.672 -3.782,-1.008 -5.89,-1.008l-14.117,-0Z" style="fill-rule:nonzero;"/><path d="M132.6,726.912c0,-0.947 0.092,-1.879 0.275,-2.796c0.184,-0.917 0.497,-1.726 0.94,-2.429c0.443,-0.703 1.031,-1.276 1.765,-1.719c0.733,-0.443 1.65,-0.664 2.75,-0.664c1.1,-0 2.024,0.221 2.773,0.664c0.748,0.443 1.344,1.016 1.787,1.719c0.443,0.703 0.756,1.512 0.94,2.429c0.183,0.917 0.275,1.849 0.275,2.796c-0,0.947 -0.092,1.871 -0.275,2.773c-0.184,0.901 -0.497,1.711 -0.94,2.429c-0.443,0.718 -1.039,1.291 -1.787,1.719c-0.749,0.427 -1.673,0.641 -2.773,0.641c-1.1,0 -2.017,-0.214 -2.75,-0.641c-0.734,-0.428 -1.322,-1.001 -1.765,-1.719c-0.443,-0.718 -0.756,-1.528 -0.94,-2.429c-0.183,-0.902 -0.275,-1.826 -0.275,-2.773Zm-6.508,-0c0,1.894 0.29,3.605 0.871,5.133c0.581,1.528 1.406,2.834 2.475,3.919c1.069,1.085 2.353,1.917 3.85,2.498c1.497,0.58 3.178,0.871 5.042,0.871c1.864,-0 3.552,-0.291 5.064,-0.871c1.513,-0.581 2.804,-1.413 3.873,-2.498c1.07,-1.085 1.895,-2.391 2.475,-3.919c0.581,-1.528 0.871,-3.239 0.871,-5.133c-0,-1.895 -0.29,-3.613 -0.871,-5.156c-0.58,-1.543 -1.405,-2.857 -2.475,-3.942c-1.069,-1.085 -2.36,-1.925 -3.873,-2.521c-1.512,-0.596 -3.2,-0.894 -5.064,-0.894c-1.864,0 -3.545,0.298 -5.042,0.894c-1.497,0.596 -2.781,1.436 -3.85,2.521c-1.069,1.085 -1.894,2.399 -2.475,3.942c-0.581,1.543 -0.871,3.261 -0.871,5.156Z" style="fill-rule:nonzero;"/><path d="M181.917,738.737l7.471,-23.696l-6.692,0l-4.354,16.042l-0.092,-0l-4.033,-16.042l-6.325,0l-3.942,16.088l-0.091,-0l-4.354,-16.088l-6.875,0l7.516,23.696l6.738,-0l4.033,-15.904l0.092,-0l4.216,15.904l6.692,-0Z" style="fill-rule:nonzero;"/><path d="M192.138,715.041l-0,23.696l6.508,-0l0,-12.421c0,-2.414 0.398,-4.148 1.192,-5.202c0.794,-1.054 2.078,-1.581 3.85,-1.581c1.558,-0 2.643,0.481 3.254,1.443c0.611,0.963 0.917,2.422 0.917,4.378l-0,13.383l6.508,-0l0,-14.575c0,-1.467 -0.13,-2.804 -0.389,-4.011c-0.26,-1.207 -0.711,-2.23 -1.353,-3.07c-0.641,-0.841 -1.52,-1.498 -2.635,-1.971c-1.115,-0.474 -2.544,-0.711 -4.285,-0.711c-1.375,0 -2.72,0.314 -4.034,0.94c-1.314,0.626 -2.383,1.627 -3.208,3.002l-0.138,0l0,-3.3l-6.187,0Z" style="fill-rule:nonzero;"/><path d="M231.28,718.983l6.233,-0c-0,-0.856 0.084,-1.719 0.252,-2.59c0.168,-0.871 0.451,-1.665 0.848,-2.383c0.397,-0.718 0.924,-1.299 1.581,-1.742c0.657,-0.443 1.459,-0.664 2.406,-0.664c1.406,-0 2.559,0.435 3.461,1.306c0.901,0.871 1.352,2.085 1.352,3.644c-0,0.977 -0.222,1.848 -0.665,2.612c-0.443,0.764 -0.993,1.451 -1.65,2.063c-0.657,0.611 -1.382,1.168 -2.177,1.672c-0.794,0.505 -1.543,1.001 -2.246,1.49c-1.375,0.947 -2.681,1.879 -3.918,2.796c-1.238,0.917 -2.315,1.917 -3.232,3.002c-0.916,1.085 -1.642,2.315 -2.177,3.69c-0.534,1.375 -0.802,2.994 -0.802,4.858l23.559,-0l-0,-5.592l-15.171,0c0.794,-1.1 1.711,-2.062 2.75,-2.887c1.039,-0.825 2.108,-1.597 3.208,-2.315c1.1,-0.718 2.192,-1.444 3.277,-2.177c1.085,-0.733 2.055,-1.551 2.911,-2.452c0.855,-0.901 1.543,-1.933 2.062,-3.094c0.52,-1.161 0.779,-2.551 0.779,-4.171c0,-1.558 -0.298,-2.964 -0.893,-4.216c-0.596,-1.253 -1.398,-2.307 -2.407,-3.163c-1.008,-0.855 -2.177,-1.512 -3.506,-1.971c-1.329,-0.458 -2.727,-0.687 -4.194,-0.687c-1.925,-0 -3.628,0.328 -5.11,0.985c-1.482,0.657 -2.712,1.574 -3.69,2.75c-0.977,1.177 -1.711,2.552 -2.2,4.125c-0.489,1.574 -0.702,3.277 -0.641,5.111Z" style="fill-rule:nonzero;"/><rect x="159.872" y="988.465" width="13.796" height="5.592" style="fill-rule:nonzero;"/><path d="M165.499,1145.97l0,-7.654l6.738,-0c0.642,-0 1.26,0.053 1.856,0.16c0.596,0.107 1.123,0.298 1.581,0.573c0.459,0.275 0.825,0.657 1.1,1.146c0.275,0.489 0.413,1.115 0.413,1.879c-0,1.375 -0.413,2.368 -1.238,2.979c-0.825,0.612 -1.879,0.917 -3.162,0.917l-7.288,0Zm-7.195,-13.246l-0,32.725l15.858,0c1.467,0 2.895,-0.183 4.285,-0.55c1.391,-0.366 2.628,-0.932 3.713,-1.696c1.085,-0.763 1.948,-1.749 2.589,-2.956c0.642,-1.207 0.963,-2.635 0.963,-4.285c-0,-2.047 -0.497,-3.797 -1.49,-5.248c-0.993,-1.452 -2.498,-2.467 -4.514,-3.048c1.466,-0.703 2.574,-1.604 3.323,-2.704c0.748,-1.1 1.123,-2.475 1.123,-4.125c-0,-1.528 -0.252,-2.811 -0.757,-3.85c-0.504,-1.039 -1.214,-1.872 -2.131,-2.498c-0.917,-0.627 -2.017,-1.077 -3.3,-1.352c-1.283,-0.275 -2.704,-0.413 -4.262,-0.413l-15.4,0Zm7.195,27.134l0,-8.984l7.838,0c1.558,0 2.811,0.359 3.758,1.077c0.948,0.718 1.421,1.918 1.421,3.598c0,0.856 -0.145,1.559 -0.435,2.109c-0.291,0.55 -0.68,0.985 -1.169,1.306c-0.489,0.321 -1.054,0.55 -1.696,0.687c-0.642,0.138 -1.314,0.207 -2.017,0.207l-7.7,-0Z" style="fill-rule:nonzero;"/><path d="M201.57,1168.38l9.9,-26.63l-6.737,0l-5.179,16.225l-0.092,0l-5.363,-16.225l-6.92,0l8.295,22.23c0.184,0.458 0.275,0.947 0.275,1.466c0,0.703 -0.206,1.345 -0.618,1.925c-0.413,0.581 -1.047,0.917 -1.902,1.009c-0.642,0.03 -1.284,0.015 -1.925,-0.046c-0.642,-0.061 -1.268,-0.122 -1.88,-0.184l0,5.363c0.673,0.061 1.337,0.115 1.994,0.16c0.657,0.046 1.322,0.069 1.994,0.069c2.231,0 3.972,-0.412 5.225,-1.237c1.253,-0.825 2.231,-2.2 2.933,-4.125Z" style="fill-rule:nonzero;"/><path d="M225.633,1161.18c-1.039,-0 -1.925,-0.214 -2.659,-0.642c-0.733,-0.428 -1.321,-0.985 -1.764,-1.673c-0.443,-0.687 -0.764,-1.489 -0.963,-2.406c-0.198,-0.917 -0.298,-1.849 -0.298,-2.796c0,-0.978 0.092,-1.925 0.275,-2.842c0.184,-0.916 0.497,-1.726 0.94,-2.429c0.443,-0.702 1.024,-1.275 1.742,-1.718c0.718,-0.444 1.612,-0.665 2.681,-0.665c1.039,-0 1.917,0.221 2.635,0.665c0.718,0.443 1.307,1.023 1.765,1.741c0.458,0.718 0.787,1.536 0.985,2.452c0.199,0.917 0.298,1.849 0.298,2.796c0,0.947 -0.091,1.879 -0.275,2.796c-0.183,0.917 -0.496,1.719 -0.939,2.406c-0.443,0.688 -1.024,1.245 -1.742,1.673c-0.718,0.428 -1.612,0.642 -2.681,0.642Zm-11.963,-19.434l0,31.992l6.509,0l-0,-11.229l0.091,-0c0.795,1.161 1.811,2.04 3.048,2.635c1.238,0.596 2.59,0.894 4.056,0.894c1.742,0 3.262,-0.336 4.561,-1.008c1.298,-0.672 2.383,-1.574 3.254,-2.704c0.871,-1.131 1.52,-2.43 1.948,-3.896c0.428,-1.467 0.642,-2.995 0.642,-4.584c-0,-1.68 -0.214,-3.292 -0.642,-4.835c-0.428,-1.543 -1.085,-2.895 -1.971,-4.056c-0.886,-1.161 -2.001,-2.093 -3.346,-2.796c-1.344,-0.703 -2.948,-1.054 -4.812,-1.054c-1.467,-0 -2.811,0.29 -4.034,0.871c-1.222,0.58 -2.23,1.512 -3.025,2.795l-0.091,0l-0,-3.025l-6.188,0Z" style="fill-rule:nonzero;"/><path d="M241.399,1149.04c0.092,-1.528 0.474,-2.796 1.146,-3.804c0.673,-1.009 1.528,-1.818 2.567,-2.429c1.039,-0.611 2.208,-1.047 3.506,-1.307c1.299,-0.259 2.605,-0.389 3.919,-0.389c1.192,-0 2.399,0.084 3.621,0.252c1.222,0.168 2.337,0.496 3.346,0.985c1.008,0.489 1.833,1.169 2.475,2.04c0.641,0.871 0.962,2.024 0.962,3.46l0,12.329c0,1.07 0.061,2.094 0.183,3.071c0.123,0.978 0.337,1.711 0.642,2.2l-6.6,0c-0.122,-0.366 -0.221,-0.741 -0.298,-1.123c-0.076,-0.382 -0.13,-0.771 -0.16,-1.168c-1.039,1.069 -2.261,1.818 -3.667,2.245c-1.405,0.428 -2.842,0.642 -4.308,0.642c-1.131,0 -2.185,-0.137 -3.163,-0.412c-0.977,-0.275 -1.833,-0.703 -2.566,-1.284c-0.734,-0.58 -1.307,-1.314 -1.719,-2.2c-0.413,-0.886 -0.619,-1.94 -0.619,-3.162c0,-1.345 0.237,-2.452 0.711,-3.323c0.473,-0.871 1.084,-1.566 1.833,-2.086c0.748,-0.519 1.604,-0.909 2.567,-1.168c0.962,-0.26 1.932,-0.466 2.91,-0.619c0.978,-0.153 1.94,-0.275 2.887,-0.367c0.948,-0.091 1.788,-0.229 2.521,-0.412c0.734,-0.184 1.314,-0.451 1.742,-0.802c0.428,-0.352 0.626,-0.863 0.596,-1.536c-0,-0.702 -0.115,-1.26 -0.344,-1.673c-0.229,-0.412 -0.535,-0.733 -0.917,-0.962c-0.382,-0.229 -0.825,-0.382 -1.329,-0.458c-0.504,-0.077 -1.046,-0.115 -1.627,-0.115c-1.283,-0 -2.292,0.275 -3.025,0.825c-0.733,0.55 -1.161,1.467 -1.283,2.75l-6.509,-0Zm15.034,4.812c-0.275,0.245 -0.619,0.436 -1.031,0.573c-0.413,0.138 -0.856,0.252 -1.33,0.344c-0.473,0.092 -0.97,0.168 -1.489,0.229c-0.52,0.061 -1.039,0.138 -1.559,0.229c-0.488,0.092 -0.97,0.214 -1.443,0.367c-0.474,0.153 -0.886,0.359 -1.238,0.619c-0.351,0.26 -0.634,0.588 -0.848,0.985c-0.214,0.398 -0.321,0.902 -0.321,1.513c0,0.58 0.107,1.069 0.321,1.466c0.214,0.398 0.504,0.711 0.871,0.94c0.367,0.229 0.795,0.39 1.283,0.481c0.489,0.092 0.994,0.138 1.513,0.138c1.283,-0 2.276,-0.214 2.979,-0.642c0.703,-0.428 1.222,-0.939 1.558,-1.535c0.337,-0.596 0.543,-1.2 0.619,-1.811c0.077,-0.611 0.115,-1.1 0.115,-1.466l-0,-2.43Z" style="fill-rule:nonzero;"/><path d="M273.024,1157.75l-6.187,0c0.061,1.589 0.42,2.911 1.077,3.965c0.657,1.054 1.497,1.902 2.521,2.544c1.023,0.641 2.192,1.1 3.506,1.375c1.314,0.275 2.658,0.412 4.033,0.412c1.345,0 2.666,-0.13 3.965,-0.389c1.299,-0.26 2.452,-0.711 3.46,-1.353c1.009,-0.641 1.826,-1.489 2.453,-2.543c0.626,-1.054 0.939,-2.361 0.939,-3.919c0,-1.1 -0.214,-2.024 -0.642,-2.773c-0.427,-0.749 -0.993,-1.375 -1.695,-1.879c-0.703,-0.504 -1.505,-0.909 -2.407,-1.215c-0.901,-0.305 -1.825,-0.565 -2.773,-0.779c-0.916,-0.214 -1.818,-0.412 -2.704,-0.596c-0.886,-0.183 -1.673,-0.389 -2.36,-0.618c-0.688,-0.23 -1.245,-0.528 -1.673,-0.894c-0.428,-0.367 -0.642,-0.84 -0.642,-1.421c0,-0.489 0.123,-0.879 0.367,-1.169c0.244,-0.29 0.542,-0.512 0.894,-0.664c0.351,-0.153 0.741,-0.252 1.168,-0.298c0.428,-0.046 0.825,-0.069 1.192,-0.069c1.161,-0 2.17,0.221 3.025,0.665c0.856,0.443 1.329,1.291 1.421,2.543l6.187,0c-0.122,-1.466 -0.496,-2.681 -1.122,-3.643c-0.627,-0.963 -1.414,-1.734 -2.361,-2.315c-0.947,-0.581 -2.024,-0.993 -3.231,-1.238c-1.207,-0.244 -2.452,-0.366 -3.736,-0.366c-1.283,-0 -2.536,0.114 -3.758,0.344c-1.222,0.229 -2.322,0.626 -3.3,1.191c-0.978,0.565 -1.764,1.337 -2.36,2.315c-0.596,0.978 -0.894,2.23 -0.894,3.758c-0,1.039 0.214,1.917 0.642,2.636c0.427,0.718 0.993,1.313 1.695,1.787c0.703,0.474 1.505,0.856 2.407,1.146c0.901,0.29 1.825,0.542 2.773,0.756c2.322,0.489 4.132,0.978 5.431,1.467c1.298,0.489 1.948,1.222 1.948,2.2c-0,0.58 -0.138,1.062 -0.413,1.444c-0.275,0.381 -0.618,0.687 -1.031,0.916c-0.412,0.229 -0.871,0.397 -1.375,0.504c-0.504,0.107 -0.985,0.161 -1.444,0.161c-0.641,-0 -1.26,-0.077 -1.856,-0.229c-0.596,-0.153 -1.123,-0.39 -1.581,-0.711c-0.459,-0.321 -0.833,-0.733 -1.123,-1.237c-0.29,-0.504 -0.436,-1.108 -0.436,-1.811Z" style="fill-rule:nonzero;"/><path d="M297.637,1157.75l-6.188,0c0.062,1.589 0.421,2.911 1.078,3.965c0.656,1.054 1.497,1.902 2.52,2.544c1.024,0.641 2.193,1.1 3.507,1.375c1.314,0.275 2.658,0.412 4.033,0.412c1.344,0 2.666,-0.13 3.965,-0.389c1.298,-0.26 2.452,-0.711 3.46,-1.353c1.008,-0.641 1.826,-1.489 2.452,-2.543c0.626,-1.054 0.94,-2.361 0.94,-3.919c-0,-1.1 -0.214,-2.024 -0.642,-2.773c-0.428,-0.749 -0.993,-1.375 -1.696,-1.879c-0.703,-0.504 -1.505,-0.909 -2.406,-1.215c-0.902,-0.305 -1.826,-0.565 -2.773,-0.779c-0.917,-0.214 -1.818,-0.412 -2.704,-0.596c-0.886,-0.183 -1.673,-0.389 -2.361,-0.618c-0.687,-0.23 -1.245,-0.528 -1.673,-0.894c-0.427,-0.367 -0.641,-0.84 -0.641,-1.421c-0,-0.489 0.122,-0.879 0.366,-1.169c0.245,-0.29 0.543,-0.512 0.894,-0.664c0.352,-0.153 0.741,-0.252 1.169,-0.298c0.428,-0.046 0.825,-0.069 1.192,-0.069c1.161,-0 2.169,0.221 3.025,0.665c0.855,0.443 1.329,1.291 1.42,2.543l6.188,0c-0.122,-1.466 -0.497,-2.681 -1.123,-3.643c-0.626,-0.963 -1.413,-1.734 -2.36,-2.315c-0.948,-0.581 -2.025,-0.993 -3.232,-1.238c-1.207,-0.244 -2.452,-0.366 -3.735,-0.366c-1.283,-0 -2.536,0.114 -3.758,0.344c-1.223,0.229 -2.323,0.626 -3.3,1.191c-0.978,0.565 -1.765,1.337 -2.361,2.315c-0.596,0.978 -0.894,2.23 -0.894,3.758c0,1.039 0.214,1.917 0.642,2.636c0.428,0.718 0.993,1.313 1.696,1.787c0.703,0.474 1.505,0.856 2.406,1.146c0.902,0.29 1.826,0.542 2.773,0.756c2.322,0.489 4.133,0.978 5.431,1.467c1.299,0.489 1.948,1.222 1.948,2.2c0,0.58 -0.137,1.062 -0.412,1.444c-0.275,0.381 -0.619,0.687 -1.031,0.916c-0.413,0.229 -0.871,0.397 -1.375,0.504c-0.505,0.107 -0.986,0.161 -1.444,0.161c-0.642,-0 -1.261,-0.077 -1.856,-0.229c-0.596,-0.153 -1.123,-0.39 -1.582,-0.711c-0.458,-0.321 -0.832,-0.733 -1.123,-1.237c-0.29,-0.504 -0.435,-1.108 -0.435,-1.811Z" style="fill-rule:nonzero;"/><rect x="596.139" y="1150.14" width="13.796" height="5.592" style="fill-rule:nonzero;"/><rect x="329.341" y="988.465" width="13.796" height="5.592" style="fill-rule:nonzero;"/><rect x="498.211" y="988.465" width="13.796" height="5.592" style="fill-rule:nonzero;"/><rect x="667.081" y="988.465" width="13.796" height="5.592" style="fill-rule:nonzero;"/><rect x="411.463" y="415.613" width="13.796" height="5.592" style="fill-rule:nonzero;"/><path d="M346.379,732.687l0,-20.625l5.134,-0c1.772,-0 3.261,0.252 4.468,0.756c1.207,0.504 2.177,1.23 2.911,2.177c0.733,0.947 1.26,2.086 1.581,3.415c0.321,1.329 0.481,2.819 0.481,4.469c0,1.802 -0.229,3.33 -0.687,4.583c-0.459,1.253 -1.07,2.269 -1.834,3.048c-0.764,0.779 -1.634,1.337 -2.612,1.673c-0.978,0.336 -1.986,0.504 -3.025,0.504l-6.417,-0Zm-7.196,-26.675l0,32.725l14.117,-0c2.506,-0 4.683,-0.42 6.531,-1.261c1.849,-0.84 3.392,-1.993 4.629,-3.46c1.238,-1.467 2.162,-3.208 2.773,-5.225c0.611,-2.017 0.917,-4.217 0.917,-6.6c0,-2.719 -0.374,-5.087 -1.123,-7.104c-0.748,-2.017 -1.787,-3.697 -3.117,-5.042c-1.329,-1.344 -2.902,-2.353 -4.72,-3.025c-1.818,-0.672 -3.782,-1.008 -5.89,-1.008l-14.117,-0Z" style="fill-rule:nonzero;"/><path d="M378.233,726.912c0,-0.947 0.092,-1.879 0.275,-2.796c0.184,-0.917 0.497,-1.726 0.94,-2.429c0.443,-0.703 1.031,-1.276 1.765,-1.719c0.733,-0.443 1.65,-0.664 2.75,-0.664c1.1,-0 2.024,0.221 2.772,0.664c0.749,0.443 1.345,1.016 1.788,1.719c0.443,0.703 0.756,1.512 0.94,2.429c0.183,0.917 0.275,1.849 0.275,2.796c-0,0.947 -0.092,1.871 -0.275,2.773c-0.184,0.901 -0.497,1.711 -0.94,2.429c-0.443,0.718 -1.039,1.291 -1.788,1.719c-0.748,0.427 -1.672,0.641 -2.772,0.641c-1.1,0 -2.017,-0.214 -2.75,-0.641c-0.734,-0.428 -1.322,-1.001 -1.765,-1.719c-0.443,-0.718 -0.756,-1.528 -0.94,-2.429c-0.183,-0.902 -0.275,-1.826 -0.275,-2.773Zm-6.508,-0c0,1.894 0.29,3.605 0.871,5.133c0.58,1.528 1.405,2.834 2.475,3.919c1.069,1.085 2.353,1.917 3.85,2.498c1.497,0.58 3.178,0.871 5.042,0.871c1.863,-0 3.552,-0.291 5.064,-0.871c1.513,-0.581 2.804,-1.413 3.873,-2.498c1.069,-1.085 1.894,-2.391 2.475,-3.919c0.581,-1.528 0.871,-3.239 0.871,-5.133c-0,-1.895 -0.29,-3.613 -0.871,-5.156c-0.581,-1.543 -1.406,-2.857 -2.475,-3.942c-1.069,-1.085 -2.36,-1.925 -3.873,-2.521c-1.512,-0.596 -3.201,-0.894 -5.064,-0.894c-1.864,0 -3.545,0.298 -5.042,0.894c-1.497,0.596 -2.781,1.436 -3.85,2.521c-1.07,1.085 -1.895,2.399 -2.475,3.942c-0.581,1.543 -0.871,3.261 -0.871,5.156Z" style="fill-rule:nonzero;"/><path d="M427.55,738.737l7.471,-23.696l-6.692,0l-4.354,16.042l-0.092,-0l-4.033,-16.042l-6.325,0l-3.942,16.088l-0.091,-0l-4.354,-16.088l-6.875,0l7.516,23.696l6.738,-0l4.033,-15.904l0.092,-0l4.216,15.904l6.692,-0Z" style="fill-rule:nonzero;"/><path d="M437.771,715.041l-0,23.696l6.508,-0l0,-12.421c0,-2.414 0.397,-4.148 1.192,-5.202c0.794,-1.054 2.078,-1.581 3.85,-1.581c1.558,-0 2.643,0.481 3.254,1.443c0.611,0.963 0.917,2.422 0.917,4.378l-0,13.383l6.508,-0l0,-14.575c0,-1.467 -0.13,-2.804 -0.39,-4.011c-0.259,-1.207 -0.71,-2.23 -1.352,-3.07c-0.641,-0.841 -1.52,-1.498 -2.635,-1.971c-1.115,-0.474 -2.544,-0.711 -4.285,-0.711c-1.375,0 -2.72,0.314 -4.034,0.94c-1.314,0.626 -2.383,1.627 -3.208,3.002l-0.138,0l0,-3.3l-6.187,0Z" style="fill-rule:nonzero;"/><path d="M493.183,738.737l0,-32.083l-5.179,-0c-0.183,1.222 -0.565,2.245 -1.146,3.07c-0.58,0.825 -1.291,1.49 -2.131,1.994c-0.84,0.504 -1.787,0.856 -2.842,1.054c-1.054,0.199 -2.146,0.283 -3.277,0.252l0,4.905l8.067,-0l0,20.808l6.508,-0Z" style="fill-rule:nonzero;"/><rect x="657.088" y="415.613" width="13.796" height="5.592" style="fill-rule:nonzero;"/><path d="M644.828,726.362l-0,-20.35l-7.196,-0l0,20.35c0,2.444 -0.489,4.239 -1.467,5.385c-0.977,1.146 -2.75,1.719 -5.316,1.719c-1.467,0 -2.636,-0.206 -3.507,-0.619c-0.87,-0.412 -1.55,-0.947 -2.039,-1.604c-0.489,-0.657 -0.81,-1.413 -0.963,-2.269c-0.152,-0.855 -0.229,-1.726 -0.229,-2.612l0,-20.35l-7.196,-0l0,20.35c0,4.461 1.215,7.761 3.644,9.9c2.429,2.139 5.859,3.208 10.29,3.208c4.369,0 7.791,-1.077 10.266,-3.231c2.475,-2.154 3.713,-5.447 3.713,-9.877Z" style="fill-rule:nonzero;"/><path d="M662.29,734.474c-1.038,0 -1.925,-0.214 -2.658,-0.641c-0.733,-0.428 -1.321,-0.986 -1.765,-1.673c-0.443,-0.688 -0.763,-1.49 -0.962,-2.406c-0.199,-0.917 -0.298,-1.849 -0.298,-2.796c0,-0.978 0.092,-1.925 0.275,-2.842c0.183,-0.917 0.497,-1.726 0.94,-2.429c0.443,-0.703 1.023,-1.276 1.741,-1.719c0.718,-0.443 1.612,-0.664 2.682,-0.664c1.038,-0 1.917,0.221 2.635,0.664c0.718,0.443 1.306,1.024 1.765,1.742c0.458,0.718 0.786,1.535 0.985,2.452c0.199,0.917 0.298,1.848 0.298,2.796c-0,0.947 -0.092,1.879 -0.275,2.796c-0.183,0.916 -0.497,1.718 -0.94,2.406c-0.443,0.687 -1.023,1.245 -1.741,1.673c-0.718,0.427 -1.612,0.641 -2.682,0.641Zm-11.962,-19.433l-0,31.992l6.508,-0l0,-11.229l0.092,-0c0.794,1.161 1.81,2.039 3.048,2.635c1.237,0.596 2.589,0.894 4.056,0.894c1.742,-0 3.262,-0.336 4.56,-1.009c1.299,-0.672 2.384,-1.573 3.255,-2.704c0.87,-1.13 1.52,-2.429 1.948,-3.896c0.427,-1.466 0.641,-2.994 0.641,-4.583c0,-1.681 -0.214,-3.292 -0.641,-4.835c-0.428,-1.543 -1.085,-2.896 -1.971,-4.057c-0.886,-1.161 -2.002,-2.093 -3.346,-2.795c-1.345,-0.703 -2.949,-1.055 -4.813,-1.055c-1.466,0 -2.811,0.291 -4.033,0.871c-1.222,0.581 -2.23,1.513 -3.025,2.796l-0.092,0l0,-3.025l-6.187,0Z" style="fill-rule:nonzero;"/><path d="M706.565,738.737l0,-32.083l-5.179,-0c-0.183,1.222 -0.565,2.245 -1.146,3.07c-0.58,0.825 -1.291,1.49 -2.131,1.994c-0.84,0.504 -1.787,0.856 -2.842,1.054c-1.054,0.199 -2.146,0.283 -3.277,0.252l0,4.905l8.067,-0l0,20.808l6.508,-0Z" style="fill-rule:nonzero;"/></svg>